<svg aria-hidden="true" style="position: absolute; width: 0; height: 0; overflow: hidden;" version="1.1" xmlns="http://www.w3.org/2000/svg" xmlns:xlink="http://www.w3.org/1999/xlink">
<defs>
<symbol id="like" viewBox="0 0 34 32">
<path d="M8.881 0.030c-0.11 0.011-0.342 0.035-0.511 0.051-3.62 0.369-6.753 2.909-7.883 6.387-0.248 0.767-0.35 1.303-0.463 2.454-0.059 0.619 0.051 2.032 0.234 2.987 0.544 2.826 1.94 5.194 4.656 7.913 0.91 0.91 1.426 1.381 4.155 3.787 3.283 2.893 5.014 4.664 6.734 6.884 0.377 0.487 1.033 1.397 1.060 1.467 0.013 0.032 0.081 0.040 0.358 0.040h0.342l0.043-0.075c0.105-0.178 0.759-1.109 1.079-1.539 1.13-1.518 2.468-3.017 4.032-4.521 1.015-0.977 1.717-1.615 3.913-3.566 2.5-2.223 3.768-3.496 4.861-4.885 1.94-2.465 2.821-4.807 2.95-7.845 0.013-0.315-0.005-0.595-0.089-1.319-0.312-2.702-1.83-5.159-4.128-6.68-1.165-0.77-2.565-1.295-3.902-1.459-0.853-0.108-1.348-0.129-1.747-0.083-0.127 0.016-0.396 0.046-0.595 0.067-2.524 0.283-4.85 1.642-6.413 3.746-0.11 0.153-0.226 0.312-0.25 0.358-0.062 0.102-0.121 0.102-0.183 0-0.194-0.334-0.751-1.007-1.2-1.453-1.475-1.475-3.429-2.422-5.463-2.651-0.199-0.022-0.468-0.051-0.595-0.067-0.264-0.030-0.694-0.030-0.993 0.003z"></path>
</symbol>
</defs>
</svg>
